<svg width="20" height="20" viewBox="0 0 20 20" fill="none" xmlns="http://www.w3.org/2000/svg">
<path d="M4.66665 17.9999C6.1394 17.9999 7.33331 16.806 7.33331 15.3333C7.33331 13.8605 6.1394 12.6666 4.66665 12.6666C3.1939 12.6666 2 13.8605 2 15.3333C2 16.806 3.1939 17.9999 4.66665 17.9999Z" fill="#77FA98"/>
<path d="M15.3327 7.33328C16.8054 7.33328 17.9993 6.13938 17.9993 4.66662C17.9993 3.19387 16.8054 1.99997 15.3327 1.99997C13.8599 1.99997 12.666 3.19387 12.666 4.66662C12.666 6.13938 13.8599 7.33328 15.3327 7.33328Z" fill="#77FA98"/>
<path fill-rule="evenodd" clip-rule="evenodd" d="M10.0007 12.6667C8.52886 12.6667 7.33398 11.4718 7.33398 10C7.33398 8.52822 8.52886 7.33334 10.0007 7.33334C11.4724 7.33334 12.6673 8.52822 12.6673 10C12.6673 11.4718 13.8621 12.6667 15.3341 12.6667C16.8054 12.6667 18.0008 13.8616 18.0008 15.3333C18.0008 16.8051 16.8054 18 15.3341 18C13.8621 18 12.6673 16.8051 12.6673 15.3333C12.6673 13.8616 11.4724 12.6667 10.0007 12.6667Z" fill="#77FA98"/>
</svg>
