<svg width="20" height="20" viewBox="0 0 20 20" fill="none" xmlns="http://www.w3.org/2000/svg">
<path d="M1.66675 11.1906V6.66675H18.3334V11.1906C18.3334 14.5577 18.3334 16.2413 17.2487 17.2873C16.1638 18.3334 14.4179 18.3334 10.926 18.3334H9.07416C5.58227 18.3334 3.83633 18.3334 2.75154 17.2873C1.66675 16.2413 1.66675 14.5577 1.66675 11.1906Z" stroke="currentColor" stroke-linecap="round" stroke-linejoin="round"/>
<path d="M1.66675 6.66675L2.46803 4.74367C3.08946 3.25222 3.40019 2.5065 4.03 2.08662C4.65981 1.66675 5.46768 1.66675 7.08341 1.66675H12.9167C14.5325 1.66675 15.3403 1.66675 15.9702 2.08662C16.6 2.5065 16.9107 3.25222 17.5322 4.74367L18.3334 6.66675" stroke="currentColor" stroke-linecap="round"/>
<path d="M10 6.66675V1.66675" stroke="currentColor" stroke-linecap="round"/>
<path d="M8.33325 10H11.6666" stroke="currentColor" stroke-linecap="round"/>
</svg>
