<?xml version="1.0" encoding="UTF-8"?>
<svg id="Layer_2" data-name="Layer 2" xmlns="http://www.w3.org/2000/svg" viewBox="0 0 1077.88 1077.88">
  <defs>
    <style>
      .cls-1 {
        fill: #00bf6e;
      }

      .cls-2 {
        fill: #00ff92;
      }
    </style>
  </defs>
  <g id="Layer_1-2" data-name="Layer 1">
    <path class="cls-1" d="M538.94,0C241.29,0,0,241.29,0,538.94s241.29,538.94,538.94,538.94,538.94-241.29,538.94-538.94S836.59,0,538.94,0ZM538.94,1001.41c-255.42,0-462.48-207.06-462.48-462.48S283.52,76.46,538.94,76.46s462.48,207.06,462.48,462.48-207.06,462.48-462.48,462.48h0Z"/>
    <path class="cls-1" d="M409.81,527.22c0-71.32,57.82-129.14,129.13-129.14V25.08C376.61,255.11,214.28,485.14,51.95,715.17c162.33,65.12,324.66,130.24,486.99,195.36v-254.18c-71.32,0-129.13-57.82-129.13-129.14h0Z"/>
    <circle class="cls-1" cx="538.94" cy="527.22" r="82.89" transform="translate(-214.95 535.51) rotate(-45)"/>
    <path class="cls-2" d="M538.94,26.27v371.81c71.32,0,129.14,57.82,129.14,129.14s-57.82,129.14-129.14,129.14v255.37c162.33-65.12,324.66-130.24,486.99-195.36-162.33-230.03-324.66-460.06-486.99-690.09h0Z"/>
  </g>
</svg>