<svg width="20" height="20" viewBox="0 0 20 20" fill="none" xmlns="http://www.w3.org/2000/svg">
<path d="M9.25756 3.12359C9.56673 2.51699 10.4334 2.51699 10.7426 3.12359L12.5655 6.7006C12.6865 6.93802 12.9137 7.10326 13.1769 7.14518L17.1393 7.77624C17.8109 7.88321 18.0785 8.70618 17.5982 9.18768L14.7616 12.0319C14.5736 12.2203 14.4871 12.4872 14.5285 12.7501L15.1536 16.7196C15.2596 17.3918 14.5586 17.9007 13.9522 17.5918L10.3783 15.7712C10.1406 15.6501 9.85948 15.6501 9.62181 15.7712L6.04788 17.5918C5.4415 17.9007 4.74055 17.3918 4.84643 16.7196L5.47167 12.7501C5.51307 12.4872 5.42645 12.2203 5.23853 12.0319L2.40187 9.18768C1.92164 8.70618 2.18925 7.88321 2.86084 7.77624L6.82324 7.14518C7.08641 7.10326 7.31366 6.93802 7.43465 6.7006L9.25756 3.12359Z" stroke="currentColor" stroke-linejoin="round"/>
</svg>
