<svg width="20" height="20" viewBox="0 0 20 20" fill="none" xmlns="http://www.w3.org/2000/svg">
<path d="M1.66675 10C1.66675 6.87522 1.66675 5.31283 2.46251 4.21756C2.71951 3.86383 3.03058 3.55276 3.38431 3.29576C4.47958 2.5 6.04197 2.5 9.16675 2.5H10.8334C13.9582 2.5 15.5206 2.5 16.6158 3.29576C16.9696 3.55276 17.2807 3.86383 17.5377 4.21756C18.3334 5.31283 18.3334 6.87522 18.3334 10C18.3334 13.1247 18.3334 14.6872 17.5377 15.7824C17.2807 16.1362 16.9696 16.4472 16.6158 16.7042C15.5206 17.5 13.9582 17.5 10.8334 17.5H9.16675C6.04197 17.5 4.47958 17.5 3.38431 16.7042C3.03058 16.4472 2.71951 16.1362 2.46251 15.7824C1.66675 14.6872 1.66675 13.1247 1.66675 10Z" stroke="currentColor" stroke-linejoin="round"/>
<path d="M7.91675 2.91669V17.0834" stroke="currentColor" stroke-linejoin="round"/>
<path d="M4.16675 5.83331C4.16675 5.83331 4.92859 5.83331 5.41675 5.83331" stroke="currentColor" stroke-linecap="round" stroke-linejoin="round"/>
<path d="M4.16675 9.16669H5.41675" stroke="currentColor" stroke-linecap="round" stroke-linejoin="round"/>
<path d="M12.5001 8.33331L13.5222 9.21431C13.9519 9.58465 14.1667 9.7699 14.1667 9.99998C14.1667 10.2301 13.9519 10.4153 13.5222 10.7856L12.5001 11.6666" stroke="currentColor" stroke-linecap="round" stroke-linejoin="round"/>
</svg>
