<svg width="66" height="66" viewBox="0 0 66 66" fill="none" xmlns="http://www.w3.org/2000/svg">
<g clip-path="url(#clip0_6053_21)">
<path d="M33 36C26.38 36 21 30.62 21 24C21 17.38 26.38 12 33 12C39.62 12 45 17.38 45 24C45 30.62 39.62 36 33 36ZM33 18C29.69 18 27 20.69 27 24C27 27.31 29.69 30 33 30C36.31 30 39 27.31 39 24C39 20.69 36.31 18 33 18Z" fill="currentColor"/>
<path d="M15 60C13.34 60 12 58.66 12 57V54C12 45.73 18.73 39 27 39H39C47.27 39 54 45.73 54 54V57C54 58.66 52.66 60 51 60C49.34 60 48 58.66 48 57V54C48 49.04 43.96 45 39 45H27C22.04 45 18 49.04 18 54V57C18 58.66 16.66 60 15 60Z" fill="currentColor"/>
<path d="M33 66C14.8 66 0 51.2 0 33C0 14.8 14.8 0 33 0C51.2 0 66 14.8 66 33C66 51.2 51.2 66 33 66ZM33 6C18.11 6 6 18.11 6 33C6 47.89 18.11 60 33 60C47.89 60 60 47.89 60 33C60 18.11 47.89 6 33 6Z" fill="currentColor"/>
</g>
<defs>
<clipPath id="clip0_6053_21">
<rect width="66" height="66" fill="white"/>
</clipPath>
</defs>
</svg>
