<svg width="20" height="20" viewBox="0 0 20 20" fill="none" xmlns="http://www.w3.org/2000/svg">
<path d="M12.9166 9.99998C12.9166 11.6108 11.6108 12.9166 9.99992 12.9166C8.38909 12.9166 7.08325 11.6108 7.08325 9.99998C7.08325 8.38915 8.38909 7.08331 9.99992 7.08331C11.6108 7.08331 12.9166 8.38915 12.9166 9.99998Z" stroke="currentColor"/>
<path d="M18.3334 11.6391V8.36098C15.9528 8.36098 14.4048 5.77532 15.6101 3.7224L12.7233 2.0834C11.5032 4.16169 8.49825 4.1616 7.27811 2.08331L4.39136 3.72232C5.59663 5.77527 4.04736 8.36098 1.66675 8.36098V11.6391C4.04731 11.6391 5.59529 14.2247 4.39004 16.2776L7.27679 17.9166C8.4975 15.8373 11.5039 15.8372 12.7247 17.9166L15.6114 16.2776C14.4062 14.2246 15.9529 11.6391 18.3334 11.6391Z" stroke="currentColor" stroke-linecap="round" stroke-linejoin="round"/>
</svg>
